<svg width="121" height="121" viewBox="0 0 121 121" fill="none" xmlns="http://www.w3.org/2000/svg">
<g clip-path="url(#clip0_1_60)">
<path fill-rule="evenodd" clip-rule="evenodd" d="M24.5298 49.3842C24.3835 49.5299 19.2364 49.6813 13.0915 49.7196C5.18592 49.7695 1.67244 49.9703 1.07627 50.4066C0.299021 50.975 0.262706 53.1383 0.609717 78.3798C0.927979 101.54 1.10048 105.852 1.73397 106.485C2.38563 107.137 6.29706 107.193 32.0566 106.919C48.3222 106.745 61.951 106.502 62.3424 106.377C63.623 105.969 62.2264 51.3467 60.9014 50.0202C60.4913 49.6091 55.1071 49.3918 42.5577 49.2788C32.7879 49.1905 24.6756 49.2379 24.5298 49.3842Z" fill="#0061FE"/>
<path fill-rule="evenodd" clip-rule="evenodd" d="M19.7669 13.3372C16.6715 13.831 11.254 16.4734 9.06249 18.559C6.70352 20.803 4.99368 26.4046 4.79294 32.5424C4.5922 38.6988 5.33716 49.7567 6.00798 50.5738C6.73227 51.456 7.76019 51.3591 8.8103 50.309C9.62234 49.497 9.66622 48.8055 9.28038 42.8695C8.51019 31.0065 9.46296 24.1425 12.4539 20.0137C15.749 15.4652 24.9842 13.1763 35.453 14.3137C42.8769 15.1207 46.1942 17.3304 48.8528 23.2391C49.8832 25.5295 49.9977 26.7425 50.2549 38.0905L50.5348 50.4477H52.2916C53.9454 50.4477 54.0695 50.3292 54.4059 48.4302C54.9809 45.1891 54.874 30.315 54.2551 27.3972C52.8232 20.6507 48.9672 16.6505 41.6402 14.3112C39.1077 13.5027 36.7255 13.2495 30.3598 13.1108C25.9213 13.0139 21.1544 13.1163 19.7669 13.3372ZM66.2134 16.8371C65.3923 18.1661 61.8833 27.8663 61.8833 28.808C61.8833 29.6039 62.3368 30.08 63.4716 30.4754C65.7368 31.2653 65.8185 31.2315 66.7147 29.1378C67.9686 26.2099 70.4527 19.2389 70.4552 18.6392C70.4567 18.3442 69.6558 17.7197 68.6753 17.2522C66.6113 16.2682 66.5695 16.2611 66.2134 16.8371ZM24.0359 21.8768C19.1783 22.9234 15.8025 25.6985 14.479 29.734C13.7406 31.9855 13.6069 49.5323 14.3226 50.248C14.5567 50.482 15.4237 50.4926 16.2494 50.2717L17.7504 49.8702L17.8361 42.5931C17.9632 31.8034 18.3047 29.4425 20.0927 26.974C22.3357 23.8777 25.2308 22.7378 30.8642 22.7332C33.5954 22.7312 35.8565 22.9839 36.5409 23.3678C37.1664 23.7188 38.4081 25.416 39.3009 27.1395L40.9235 30.2727L41.1898 40.1932C41.336 45.6496 41.6306 50.2878 41.8444 50.5007C42.0578 50.7135 42.8522 50.6691 43.6098 50.4023L44.9867 49.9171V39.8427C44.9867 30.1103 44.9443 29.6851 43.7348 27.317C42.2903 24.489 40.8291 23.1917 38.2452 22.4437C35.8797 21.7588 26.3495 21.3785 24.0359 21.8768ZM75.1171 26.1116C74.2572 27.2903 73.027 28.8271 72.3839 29.5257C69.9422 32.1787 66.4227 37.0263 66.4227 37.7369C66.4227 38.4557 67.842 39.0786 69.512 39.0922C70.2751 39.0987 81.3472 27.2999 81.264 26.5685C81.2085 26.0798 77.9714 23.968 77.2779 23.968C76.9495 23.968 75.9776 24.9328 75.1171 26.1116ZM76.0059 42.6233C68.6742 45.354 67.4315 45.9053 67.4315 46.4263C67.4315 46.7153 68.0695 47.3287 68.8493 47.7892C70.1304 48.5462 70.5798 48.5573 73.5147 47.9057C75.3007 47.5087 78.5217 46.8081 80.6713 46.3487C82.874 45.8776 84.5803 45.2521 84.5803 44.9157C84.5803 43.9922 80.7762 40.9125 79.9481 41.1652C79.8603 41.1919 78.0864 41.8481 76.0059 42.6233Z" fill="#1E1919"/>
<path fill-rule="evenodd" clip-rule="evenodd" d="M27.3396 62.3382C24.619 63.015 22.1929 64.7556 21.4172 66.5875C21.0646 67.4198 20.8023 69.4479 20.8346 71.0952C20.8856 73.6816 21.0782 74.248 22.2499 75.2563C22.9959 75.8978 23.9633 76.4229 24.399 76.4229C25.3674 76.4229 25.2444 77.8402 23.3111 88.9798C22.3639 94.4357 22.1273 96.8466 22.5152 97.0862C23.4654 97.6733 36.2912 97.6425 38.8464 97.0463C40.185 96.7341 41.4076 96.1485 41.562 95.7455C41.8399 95.0213 41.6371 93.6135 39.6867 82.7276C38.4363 75.7485 38.4358 75.0555 39.6791 74.6611C40.9431 74.2601 41.9463 71.0432 41.5186 68.7634C41.1443 66.7686 39.0234 64.277 36.6584 63.0539C34.6318 62.0063 30.0803 61.6568 27.3396 62.3382ZM33.3643 66.0015C34.7256 68.3241 34.9718 70.4576 34.1335 72.6623C33.5923 74.0866 33.612 74.2369 35.9155 86.2128C37.7156 95.5685 37.8225 95.0848 33.9529 95.0848C32.1846 95.0848 29.9951 95.2331 29.0872 95.4147L27.4374 95.745L27.8001 92.5145C27.9993 90.7381 28.4638 87.4687 28.832 85.2495C30.3255 76.2463 30.3265 76.2766 28.3513 73.9126C26.873 72.1427 26.5785 71.3963 26.5875 69.4398C26.5991 67.0092 27.4601 65.4386 29.3505 64.3991C31.1612 63.4029 32.0494 63.7575 33.3643 66.0015Z" fill="#1E1919"/>
</g>
<defs>
<clipPath id="clip0_1_60">
<rect width="120" height="120" fill="white" transform="translate(0.39978 0.0742188)"/>
</clipPath>
</defs>
</svg>
