<svg width="121" height="121" viewBox="0 0 121 121" fill="none" xmlns="http://www.w3.org/2000/svg">
<g clip-path="url(#clip0_1_69)">
<path fill-rule="evenodd" clip-rule="evenodd" d="M27.2801 15.4878C18.6756 16.6195 9.13943 23.1097 4.71263 30.8473C1.79953 35.9385 0.746896 39.8447 0.490644 46.5106C0.27821 52.0253 0.368233 52.9317 1.52947 56.9789C6.13536 73.0362 20.195 84.0394 36.1232 84.0522C41.3588 84.0565 44.9982 83.3763 49.3136 81.5864L52.7706 80.1527L57.5894 84.3666C60.2396 86.6843 66.5068 92.1656 71.5171 96.5477C76.5274 100.929 80.9813 104.52 81.4152 104.526C82.4264 104.539 90.3908 96.1066 90.3908 95.0221C90.3908 94.5724 89.3729 93.2835 88.1283 92.158C86.8842 91.0325 82.1497 86.5519 77.6081 82.2013C73.066 77.8507 68.1448 73.201 66.6716 71.8688L63.9938 69.4463L65.2456 66.6294C68.0267 60.3726 68.5931 57.4543 68.3578 50.594C68.1825 45.4909 67.9034 43.5542 66.8993 40.4692C63.7409 30.7682 56.481 22.7386 46.7625 18.198C40.4895 15.2677 34.8829 14.4876 27.2801 15.4878Z" fill="#0061FE"/>
<path fill-rule="evenodd" clip-rule="evenodd" d="M28.9469 20.0368C28.292 20.1559 26.7916 20.4826 25.6127 20.7631C24.4339 21.0432 22.9335 21.3652 22.2786 21.4781C20.1381 21.8472 18.2771 22.7365 15.3521 24.787C3.5016 33.0952 0.689003 50.6681 8.97436 64.6325C17.0826 78.2982 33.5833 83.3851 47.9377 76.6454C52.7713 74.3763 57.682 69.4617 60.0469 64.5262C62.3427 59.736 62.8742 57.1611 62.849 50.9515C62.8319 46.79 62.5937 44.9757 61.6916 42.1322C58.3798 31.6968 50.716 23.9192 40.8546 20.9856C38.2111 20.1992 31.1474 19.6362 28.9469 20.0368ZM39.167 22.5712C46.3926 25.1414 53.1461 31.6048 56.7389 39.3882C58.1302 42.4018 59.431 48.3323 59.4224 51.6231C59.3943 62.23 53.732 72.1143 45.2937 76.2844C42.2892 77.7695 41.1475 78.0681 37.8052 78.2439C32.8998 78.5011 29.8076 77.8571 25.4437 75.6685C14.9639 70.4124 8.50806 59.9961 8.41089 48.1851C8.36802 42.9662 8.96674 40.2493 11.213 35.4715C13.2178 31.2071 18.7282 25.4176 22.5167 23.5953C23.8266 22.9651 25.0054 22.2964 25.1364 22.1092C26.0243 20.8403 35.1451 21.1404 39.167 22.5712ZM38.5931 31.693C37.5471 32.0116 35.9767 33.4201 33.7462 36.0393C29.8805 40.578 29.4799 41.5278 31.1589 42.166C33.0655 42.8909 33.4694 42.7257 35.0079 40.5918C39.2775 34.6704 43.3823 31.8992 44.9532 33.8783C46.1363 35.3701 46.6231 37.0052 46.3088 38.436C45.9449 40.0931 39.7619 48.5161 37.5323 50.3918C36.4144 51.3325 35.6366 51.645 34.9417 51.4326C34.3954 51.2654 33.0088 51.0044 31.8609 50.8519C30.2058 50.6324 29.8195 50.7129 29.9924 51.2397C30.5673 52.9906 38.4878 53.8917 41.117 52.5057C42.9008 51.565 48.5822 45.7926 50.4717 43.001C51.5853 41.3558 51.8153 40.5842 51.6344 39.1067C51.0361 34.2222 43.7986 30.1078 38.5931 31.693ZM24.422 45.4101C22.6425 46.5123 19.6399 49.7407 17.5398 52.8091C16.1395 54.8553 15.938 55.5317 15.9056 58.2985C15.8761 60.8287 16.0775 61.7465 16.9211 62.9316C18.3714 64.9683 20.6934 65.9552 24.0357 65.9552C27.8852 65.9552 30.3272 64.5967 34.0962 60.3586L37.167 56.9053H34.8098C32.4939 56.9053 32.3987 56.9644 29.3899 60.2828C27.7052 62.1404 25.9252 63.877 25.4341 64.1419C23.3074 65.2888 20.642 61.8384 20.9873 58.3857C21.2221 56.0404 22.9216 53.1949 26.3796 49.3582L29.1031 46.3365L31.6447 46.6538C33.0427 46.8286 34.1863 46.8386 34.1863 46.6757C34.1863 46.5133 33.2756 45.9665 32.162 45.4611C29.5656 44.2827 26.2772 44.2608 24.422 45.4101ZM57.2948 74.9964C54.7651 77.8733 52.8132 80.4178 52.9571 80.6507C53.1009 80.8836 53.9016 81.2103 54.7365 81.3775C56.1621 81.6628 56.4827 81.4366 60.0235 77.6452C62.0964 75.4251 64.2422 73.0369 64.7923 72.3382C65.763 71.1036 65.7664 71.0488 64.9014 70.4163C62.9924 69.0207 62.0502 69.588 57.2948 74.9964ZM81.9937 89.9063C79.0191 91.6033 73.7198 97.1695 73.7198 98.597C73.7198 98.9032 76.7781 100.249 77.474 100.249C77.7217 100.249 78.6567 99.5524 79.5517 98.7013C80.4462 97.8501 81.8041 96.6017 82.5695 95.9282C84.2014 94.4907 86.58 91.6476 86.58 91.1347C86.58 90.5888 84.5572 89.2918 83.7351 89.3109C83.335 89.3204 82.5514 89.5881 81.9937 89.9063Z" fill="#1E1919"/>
<path fill-rule="evenodd" clip-rule="evenodd" d="M73.7708 20.8177C73.9504 28.5915 73.8804 28.4039 76.5186 28.2329L78.7211 28.09L78.5706 22.6415C78.4877 19.6451 78.2124 16.8048 77.9585 16.3304C77.6298 15.7165 76.9425 15.4678 75.5722 15.4678H73.6475L73.7708 20.8177ZM63.4426 25.0535C63.2501 25.365 64.6852 27.1645 66.8677 29.3484C70.4257 32.9088 70.712 33.0922 72.2909 32.8264C75.4112 32.3005 75.3998 31.6499 72.2257 29.0402C70.6343 27.7318 68.7653 26.179 68.0727 25.5898C66.7329 24.4505 64.0103 24.1347 63.4426 25.0535ZM83.9604 27.1164C80.7216 29.2969 77.7037 31.9766 78.0666 32.3496C78.2305 32.5177 79.0878 32.7673 79.9719 32.904C81.3327 33.1141 82.1991 32.7473 85.6275 30.5082C87.8543 29.054 89.8371 27.8614 90.0334 27.858C90.7107 27.8466 90.3887 26.9316 89.5571 26.5058C87.3851 25.3927 86.3534 25.5051 83.9604 27.1164ZM80.1924 36.373C79.3946 36.6859 79.5313 36.9017 81.3036 38.1258C82.4153 38.8931 83.9552 40.0267 84.7249 40.644C85.8371 41.5361 86.4615 41.7038 87.7647 41.459C90.8116 40.8874 90.4601 40.1539 85.9686 37.7085C82.6978 35.9276 81.8361 35.7285 80.1924 36.373ZM74.1371 36.895C73.3664 37.3565 73.3369 38.3244 73.9199 44.0463C74.0132 44.9632 74.1138 46.3025 74.1428 47.0232C74.1852 48.0587 74.4267 48.333 75.2959 48.333C75.9009 48.333 76.7873 48.0468 77.2655 47.6967C78.0633 47.1137 78.1004 46.6288 77.7137 41.8619C77.3026 36.7926 77.2626 36.6607 76.1014 36.5478C75.4465 36.4839 74.5624 36.6402 74.1371 36.895ZM7.67317 81.5002C6.94823 81.7965 7.43454 83.4616 9.3612 87.2778C10.7663 90.0599 10.9549 90.2404 12.1671 89.9523C14.803 89.3255 14.8121 89.2345 12.6549 85.0997C10.9083 81.7512 10.4501 81.2035 9.4236 81.2359C8.76582 81.2563 7.97801 81.3754 7.67317 81.5002ZM22.0405 84.8406C19.5013 86.1666 17.5223 87.6155 17.5189 88.1499C17.517 88.4367 17.9343 89.0501 18.4458 89.5136C19.4489 90.4214 19.4304 90.4272 25.5419 87.2049L27.138 86.3633L26.0544 85.2097C24.8017 83.8765 24.0234 83.8046 22.0405 84.8406ZM6.79867 94.3491C5.48882 95.2374 3.82937 96.3567 3.11158 96.8373L1.80554 97.7108L2.87342 98.6716C4.73435 100.347 5.06063 100.351 7.12875 98.7282C11.4079 95.3703 11.829 94.9059 11.2398 94.1957C9.98564 92.6844 9.21545 92.7111 6.79867 94.3491ZM14.9578 94.6687C14.1734 95.2426 14.2062 95.4846 15.507 98.722C16.2677 100.616 17.0079 102.283 17.1512 102.427C17.2951 102.57 18.202 102.358 19.1665 101.955C21.1994 101.106 21.1746 100.669 18.8564 96.5591C17.4013 93.9804 16.4987 93.5422 14.9578 94.6687Z" fill="#1E1919"/>
</g>
<defs>
<clipPath id="clip0_1_69">
<rect width="120" height="120" fill="white" transform="translate(0.39978 0.0742188)"/>
</clipPath>
</defs>
</svg>
