<svg width="121" height="121" viewBox="0 0 121 121" fill="none" xmlns="http://www.w3.org/2000/svg">
<g clip-path="url(#clip0_1_76)">
<path fill-rule="evenodd" clip-rule="evenodd" d="M53.0513 43.0765C50.7837 43.4866 46.6802 44.567 43.9321 45.4787C39.8018 46.8477 38.5079 47.5538 36.4696 49.5496C32.6226 53.3161 31.6758 56.8397 31.0969 69.535C30.5922 80.6121 30.7825 82.2062 33.1321 86.552C36.4738 92.7344 41.6913 95.2922 51.8484 95.7296L58.0885 95.9982L58.946 97.5745C61.8124 102.845 66.0127 106.485 70.6566 107.721C73.5078 108.479 80.3158 108.749 81.8415 108.163C83.3578 107.581 82.6869 106.138 80.1197 104.46C77.4772 102.733 75.8385 100.167 75.8385 97.7564C75.8385 96.3962 75.8579 96.3899 80.1759 96.381C85.1874 96.3705 90.6163 95.3426 93.5269 93.8537C101.362 89.8459 104.187 81.3639 103.216 64.7627C102.552 53.4018 101.308 50.5028 95.398 46.5428C91.4891 43.9235 90.0469 43.3856 85.302 42.7763C79.2343 41.9971 57.9276 42.1959 53.0513 43.0765Z" fill="#0061FE"/>
<path fill-rule="evenodd" clip-rule="evenodd" d="M33.2524 12.3186C27.5864 12.7365 19.3231 14.104 16.4246 15.1024C13.2018 16.2128 7.87745 19.4125 5.81335 21.4793C0.615232 26.6837 -0.818498 35.7782 1.42173 49.3342C3.06261 59.262 4.42851 61.856 9.51307 64.7014C12.145 66.174 13.604 66.623 16.4173 66.8239L19.984 67.0794L20.2821 69.2539C20.8042 73.064 18.6948 79.0587 16.1197 81.0844C14.4562 82.393 14.5098 82.6306 16.6744 83.5349C19.8441 84.8593 27.099 84.1695 28.5637 82.4046C29.4281 81.363 27.823 80.8573 25.711 81.5055C24.6858 81.8199 23.4939 81.8325 22.6101 81.5381L21.1748 81.0597L22.9576 78.7248C25.1195 75.8931 26.1479 72.0499 25.5775 68.9337C25.3509 67.6966 25.1516 66.4474 25.1343 66.1583C25.1174 65.8691 23.2105 65.4832 20.8972 65.3008C13.7743 64.7393 11.6182 63.5737 9.35377 59.0606C8.28228 56.925 7.94948 55.9334 7.14718 52.4887C6.17454 48.3132 5.37855 39.8328 5.64195 36.4532C6.29809 28.038 9.45944 23.403 17.1171 19.6302C22.5796 16.9394 26.5748 16.3994 41.4016 16.3484C49.8347 16.3195 53.3709 16.5151 56.3729 17.1776C61.1552 18.2327 65.3522 20.2185 67.644 22.5108C69.8806 24.7474 72.1271 30.8277 72.6655 36.1026C72.8968 38.3675 73.2916 40.4043 73.5424 40.6298C73.7932 40.8548 74.749 40.8333 75.6659 40.582C77.7232 40.0178 78.208 38.3233 77.6917 33.5022C77.1412 28.3645 74.9157 24.404 70.6624 20.9961C61.9643 14.0251 57.2651 12.4411 44.2932 12.1056C40.9678 12.0199 35.9995 12.1156 33.2524 12.3186ZM52.7053 30.4092C46.4367 33.6226 45.6628 33.7588 44.85 31.7966C44.4909 30.9297 43.7538 29.8193 43.2123 29.3293C42.277 28.4823 42.0235 28.5669 38.1346 31.0301C33.4364 34.0048 32.2009 34.5663 32.2009 33.7262C32.2009 32.6689 29.5427 29.6184 28.6253 29.6221C28.1342 29.6248 25.9003 30.6726 23.6611 31.9517C21.4224 33.2304 19.0834 34.438 18.4635 34.6347C17.473 34.9491 17.3757 34.836 17.6607 33.7014C17.9036 32.7341 17.647 32.0937 16.6381 31.1463C15.319 29.9066 15.2769 29.9018 14.5456 30.9018C13.2349 32.6946 13.6192 35.0206 15.5335 36.8759C18.0124 39.2786 21.159 39.2313 25.7236 36.7224L29.0601 34.8881L30.9549 36.9853C31.9964 38.1383 33.3197 39.082 33.8944 39.082C35.0205 39.082 39.4878 36.9774 41.5488 35.4764C42.7922 34.5705 42.8463 34.5858 44.6202 36.3597C46.2548 37.9942 46.6344 38.1372 48.6359 37.8686C49.852 37.7056 52.4308 36.7592 54.3672 35.7661L57.8876 33.9596L59.6336 35.7682C61.0873 37.2734 61.642 37.5247 62.9411 37.2682C65.5236 36.7571 65.6015 36.184 63.479 33.2929C61.9012 31.1437 58.0448 27.8814 57.3161 28.0796C57.2378 28.1011 55.1632 29.149 52.7053 30.4092ZM13.2975 45.0572C12.4973 47.4809 12.8269 48.8915 14.6486 50.8399C15.8884 52.1659 16.3311 52.3141 18.3652 52.0849C19.749 51.9288 21.9261 51.0523 23.7967 49.8978L26.9192 47.9704L28.4244 49.0834C29.6231 49.9693 30.2714 50.1081 31.6052 49.7621L33.2803 49.3284L30.5579 46.3079C28.7872 44.3437 27.4244 43.288 26.66 43.288C26.0133 43.288 24.3009 44.1019 22.8546 45.0966C20.6512 46.6124 16.8605 48.5456 16.0913 48.5456C15.9767 48.5456 16.0224 47.9872 16.1938 47.3053C16.412 46.4352 16.1234 45.6208 15.2259 44.5772L13.9462 43.0898L13.2975 45.0572Z" fill="#1E1919"/>
<path fill-rule="evenodd" clip-rule="evenodd" d="M78.9133 60.092C72.6652 63.6671 72.0306 63.7838 71.2068 61.5057C70.0096 58.1945 69.5354 58.1493 64.2768 60.8412C61.6707 62.175 59.2002 63.2665 58.7859 63.2665C58.3721 63.2665 57.8721 62.7339 57.6744 62.0835C57.2081 60.5446 55.3553 58.5347 54.4037 58.5347C53.9931 58.5347 52.0704 59.5993 50.1309 60.9006C46.7151 63.1923 45.5001 63.7649 46.0947 62.8027C46.4333 62.2549 44.4481 59.5862 43.702 59.5862C43.4192 59.5862 42.8398 60.4195 42.4139 61.4384C41.507 63.6092 41.8635 64.5588 44.3823 66.6781C45.8108 67.8805 46.3897 68.0498 48.1247 67.7722C49.2629 67.5902 51.2492 66.625 52.5862 65.604L54.9962 63.7638L56.4289 65.3327C57.217 66.1954 58.4872 67.0582 59.2517 67.2501C61.4535 67.8027 64.7779 67.0345 67.1706 65.4199L69.3745 63.9321L70.9555 65.7023C73.4276 68.4704 76.4002 68.0145 82.9074 63.8711C86.0551 61.8658 86.5356 61.8322 87.3227 63.5588C87.6592 64.298 88.1707 64.7575 88.4583 64.5793C89.2922 64.0645 89.0703 62.2039 87.8837 59.7523C86.9315 57.786 86.5635 57.4837 85.1235 57.4863C84.0982 57.4879 81.7187 58.4863 78.9133 60.092ZM56.9121 74.618C55.3359 75.6558 53.3895 76.8451 52.5867 77.2599C51.2429 77.9549 51.1278 77.9371 51.1278 77.0312C51.1278 76.007 49.5962 74.3073 48.6735 74.3073C48.0426 74.3073 46.9217 76.6032 46.9217 77.895C46.9217 79.529 49.847 82.1936 51.6414 82.1936C53.0978 82.1936 56.7717 80.589 59.0913 78.9397C59.8053 78.4318 60.2501 78.6169 61.6291 79.9959C63.811 82.1778 66.5223 82.2225 70.5401 80.1421L73.3913 78.6663L74.5706 80.0353C75.6016 81.233 76.1341 81.3991 78.8165 81.3587C80.8764 81.3276 83.0935 80.8245 85.5646 79.8282C87.5887 79.0117 89.3179 78.2893 89.4073 78.2225C89.7065 77.9986 88.0445 74.4398 87.4762 74.0885C87.1676 73.8977 85.9079 74.2552 84.6776 74.8835C81.8733 76.3135 79.9075 76.9155 76.8644 77.2751C74.6699 77.5349 74.4218 77.445 73.8461 76.1805C73.5006 75.4234 72.8792 74.6732 72.4644 74.5139C72.0496 74.3551 69.9912 75.0712 67.8909 76.1059C63.3447 78.3456 62.6943 78.4144 62.6943 76.6547C62.6943 75.1238 61.2874 72.73 60.3873 72.73C60.0524 72.73 58.4888 73.5796 56.9121 74.618Z" fill="#1E1919"/>
</g>
<defs>
<clipPath id="clip0_1_76">
<rect width="120" height="120" fill="white" transform="translate(0.39978 0.0742188)"/>
</clipPath>
</defs>
</svg>
