<svg width="121" height="121" viewBox="0 0 121 121" fill="none" xmlns="http://www.w3.org/2000/svg">
<g clip-path="url(#clip0_1_83)">
<path fill-rule="evenodd" clip-rule="evenodd" d="M20.8688 16.6613C20.758 16.9844 20.5912 22.1093 20.4978 28.0504C20.3296 38.7877 20.3198 38.8774 18.8418 43.0306C17.8001 45.9584 16.2643 48.8135 13.7089 52.5712C4.84642 65.6046 3.91133 67.8834 3.127 78.3586C2.53335 86.2864 3.17538 98.4134 4.24197 99.4157C5.34848 100.455 69.8785 102.1 71.3367 101.126C71.9337 100.727 71.8895 100.15 71.0019 96.7649C70.4392 94.6186 69.8418 91.5949 69.6737 90.0451L69.3684 87.2271L52.9717 70.7751L36.5751 54.323L38.2447 52.7046C39.4771 51.5098 40.0876 51.2064 40.577 51.5445C40.9415 51.7967 47.4598 58.0793 55.0622 65.5055C62.6645 72.9317 69.0988 79.0082 69.3609 79.0082C69.623 79.0082 69.9437 78.4272 70.0743 77.7166C70.4646 75.59 72.5766 68.609 73.5958 66.0752C74.1195 64.7738 75.8497 61.498 77.4404 58.7956C81.3362 52.1772 84.2542 46.0693 85.2842 42.375C85.9915 39.8369 86.1361 37.5004 86.1413 28.5201C86.1441 22.5789 85.9952 17.3484 85.8092 16.8961C85.4927 16.1245 83.4966 16.0742 53.2709 16.0742C27.9306 16.0742 21.0271 16.1991 20.8688 16.6613Z" fill="#0061FE"/>
<path fill-rule="evenodd" clip-rule="evenodd" d="M7.12715 17.5865C6.54572 17.8669 6.07042 18.2596 6.07042 18.4587C6.07042 19.2534 9.34675 28.243 10.7215 31.2207C11.5264 32.9645 12.4474 34.3899 12.7678 34.389C13.7348 34.3862 16.4029 32.5695 16.4029 31.9139C16.4029 31.0671 12.068 20.93 10.7839 18.7748C9.70087 16.9567 8.94378 16.7106 7.12715 17.5865ZM1.6176 34.0386L0.39978 35.0953L4.71076 38.2758C7.47141 40.3127 9.30918 41.3653 9.82016 41.2032C11.0169 40.8233 12.7978 38.7516 12.5268 38.0546C12.2864 37.437 4.19367 32.9819 3.31212 32.9819C3.04959 32.9819 2.28733 33.4576 1.6176 34.0386ZM9.12319 44.3199C4.5276 46.8015 1.37385 48.7093 1.37385 49.008C1.37385 49.2057 1.86511 49.9388 2.4658 50.6372L3.55822 51.9067L7.66913 49.666C9.93053 48.4331 11.8928 47.1322 12.0299 46.7748C12.2868 46.1055 11.0122 43.7727 10.404 43.7981C10.2161 43.8061 9.63982 44.0409 9.12319 44.3199ZM39.4626 48.7825C38.8567 49.2071 37.2308 50.6062 35.8495 51.8917C32.8686 54.6659 32.7432 54.1845 38.1264 60.6136C43.6721 67.2372 53.1024 76.9084 69.5742 92.8631C73.0412 96.2211 76.7482 100.006 77.812 101.273C78.9946 102.681 80.4228 103.81 81.4857 104.175L83.2243 104.773L85.9117 101.905C87.6447 100.055 88.523 98.7483 88.3859 98.2228C88.2036 97.5258 86.7256 95.6909 80.0973 87.9317C68.3108 74.1346 45.2647 50.2976 42.2646 48.8008C40.3719 47.8568 40.7805 47.8597 39.4626 48.7825ZM43.6054 54.6542L45.2121 56.5215L43.7384 57.9953C42.9273 58.8059 42.2045 59.3714 42.1317 59.2512C42.0589 59.1314 41.167 58.1414 40.1497 57.0518L38.2997 55.0698L39.4095 53.8886C40.9026 52.2998 41.7062 52.4463 43.6054 54.6542ZM51.8691 63.1573C53.6373 65.0298 56.6676 68.2531 58.603 70.3196C60.538 72.3861 64.1459 76.1992 66.6196 78.7926C69.0937 81.3866 72.0028 84.5567 73.084 85.8375C74.1651 87.1187 75.8559 89.0448 76.8412 90.1184C79.1951 92.6837 82.773 96.8406 83.19 97.4958C83.3718 97.7813 83.0844 98.4792 82.5508 99.047L81.581 100.079L79.7019 97.8804C77.2141 94.969 70.677 88.2698 67.5298 85.4063C62.612 80.9319 55.585 73.9467 53.271 71.2321C51.9794 69.717 49.6889 67.2457 48.1804 65.7404L45.438 63.0033L46.6779 61.3778C47.3599 60.4836 48.0832 59.7523 48.2856 59.7523C48.488 59.7523 50.1008 61.2848 51.8691 63.1573Z" fill="#1E1919"/>
<path fill-rule="evenodd" clip-rule="evenodd" d="M32.3023 27.5665C32.1355 27.737 32.1491 28.4443 32.3328 29.138C32.9739 31.5591 33.7037 31.6492 54.3123 31.8517L73.3536 32.0381L73.0746 30.3201C72.9215 29.3756 72.6298 28.441 72.4265 28.2442C71.9695 27.8004 32.7226 27.1373 32.3023 27.5665ZM56.5586 37.7421C36.8415 38.6344 29.1255 39.1868 28.174 39.7748C27.3399 40.2904 28.615 42.8444 29.7168 42.8637C30.2729 42.8736 34.8487 42.8571 39.8858 42.8271C49.2029 42.7712 51.1313 42.6965 58.2024 42.1183C60.3981 41.9389 64.989 41.807 68.4043 41.8258C71.9446 41.8445 74.7353 41.6637 74.8955 41.404C75.3971 40.5929 74.168 37.7886 73.2 37.5354C72.1034 37.2485 65.7184 37.3279 56.5586 37.7421ZM68.4537 50.1067C68.3691 50.1791 64.4146 50.3575 59.6654 50.5036C54.9163 50.6497 50.8532 50.9465 50.6367 51.163C50.4198 51.38 50.4094 52.1803 50.6133 52.9416C50.9016 54.0213 51.3389 54.4036 52.5971 54.6779C54.9153 55.1837 71.3942 54.7338 71.9789 54.1491C72.2973 53.8306 72.3128 53.0609 72.0249 51.8957C71.6403 50.3383 71.4087 50.1166 70.0975 50.0504C69.2774 50.009 68.5377 50.0344 68.4537 50.1067ZM20.7158 51.2367C20.2598 51.5256 20.2062 52.0497 20.512 53.2257L20.9267 54.8221L24.8089 54.8855C26.9439 54.9202 29.0964 54.8427 29.5919 54.7131C30.5824 54.4543 30.7637 53.1534 30.0066 51.7383C29.5825 50.946 28.9973 50.8309 25.4274 50.837C23.1763 50.8413 21.0558 51.0212 20.7158 51.2367ZM22.2737 61.9092C17.8824 62.2229 14.0255 62.5 13.7024 62.5254C12.9904 62.5813 12.935 64.1744 13.6014 65.4203C14.0434 66.2455 14.6347 66.3287 20.0592 66.3263C23.3435 66.3249 28.1016 66.1868 30.6331 66.0192L35.2348 65.7144L35.0948 63.5558L34.9544 61.3973L32.6061 61.3686C31.3146 61.3527 26.665 61.5959 22.2737 61.9092ZM22.1271 70.5809C20.0813 71.4014 18.1116 74.248 16.4659 78.7614C15.3702 81.7667 15.1137 82.1265 14.2871 81.8142C13.7719 81.6197 12.8378 80.9091 12.2117 80.2347C11.4246 79.3879 10.5905 79.0094 9.51118 79.0094C8.65217 79.0094 7.9491 79.2306 7.9491 79.5016C7.9491 80.9021 12.0544 83.2246 14.5459 83.2335C15.0743 83.2354 15.2748 83.7346 15.2823 85.0675C15.3105 89.881 20.481 92.2495 27.6193 90.7189C29.5125 90.3126 30.1663 90.3488 31.0473 90.9077C31.6466 91.2871 32.7912 91.7343 33.5919 91.9005C35.5227 92.3021 40.5236 91.468 42.7301 90.376C44.4856 89.5076 44.5096 89.509 46.2647 90.5681C47.2369 91.1552 48.8051 91.7657 49.7496 91.9249C51.8428 92.2786 57.3514 91.3764 58.5232 90.4883C59.3024 89.8979 59.238 89.8401 57.7873 89.8265C56.9132 89.8181 55.4 90.0505 54.425 90.3427C52.1927 91.0115 50.8857 90.6827 48.8093 88.9304L47.1655 87.543L48.6393 85.9767C51.2172 83.2368 52.2552 80.2577 51.2074 78.6045C50.6043 77.6521 46.9917 77.1092 44.8989 77.6558C43.4994 78.0217 42.9546 78.4791 42.4332 79.7265C41.577 81.7761 41.5817 84.2385 42.4464 86.3074L43.1283 87.9394L40.6852 89.3409C37.7536 91.0223 35.5889 91.1505 34.1663 89.7279L33.1439 88.7054L34.7534 87.5172C39.6468 83.9065 42.3806 79.5561 40.5823 78.241C38.5985 76.7903 33.6041 76.9142 32.2224 78.4491C30.6434 80.2023 29.0677 84.138 29.0156 86.4581C28.9667 88.6251 28.8479 88.8562 27.4967 89.4221C26.6903 89.7594 25.1156 90.0379 23.9964 90.0407C22.2882 90.0454 21.742 89.8002 20.5914 88.5124C19.6445 87.4529 19.2209 86.4835 19.2209 85.3756C19.2209 83.8008 19.2683 83.7628 21.9214 83.225C26.9392 82.2082 31.432 78.2988 31.432 74.9501C31.432 71.8002 25.7449 69.1302 22.1271 70.5809ZM27.0022 73.1424C27.9227 75.3451 27.516 76.631 25.1738 78.9239C23.1759 80.88 19.6905 82.7234 19.6905 81.8245C19.6905 79.5974 24.5233 71.4949 25.8515 71.4949C26.1056 71.4949 26.6236 72.2365 27.0022 73.1424ZM37.5375 79.6434C37.5375 80.7471 35.5692 83.8398 34.0935 85.0548C33.4205 85.6095 33.3106 85.594 33.3106 84.9473C33.3106 83.8661 34.7417 80.3277 35.5697 79.3616C36.5649 78.2006 37.5375 78.3401 37.5375 79.6434ZM47.444 81.8668C47.1472 82.8568 46.6991 83.7933 46.4479 83.9488C45.8298 84.3306 45.8622 81.2882 46.4939 79.627C46.9579 78.4073 47.0349 78.373 47.49 79.186C47.8385 79.8092 47.8249 80.5949 47.444 81.8668Z" fill="#1E1919"/>
</g>
<defs>
<clipPath id="clip0_1_83">
<rect width="120" height="120" fill="white" transform="translate(0.39978 0.0742188)"/>
</clipPath>
</defs>
</svg>
